<?xml version="1.0" standalone="no"?>
<!DOCTYPE svg PUBLIC "-//W3C//DTD SVG 20010904//EN"
 "http://www.w3.org/TR/2001/REC-SVG-20010904/DTD/svg10.dtd">
<svg version="1.0" xmlns="http://www.w3.org/2000/svg"
 width="200.000000pt" height="200.000000pt" viewBox="0 0 200.000000 200.000000"
 preserveAspectRatio="xMidYMid meet">
<metadata>
Created by potrace 1.11, written by Peter Selinger 2001-2013
</metadata>
<g transform="translate(0.000000,200.000000) scale(0.100000,-0.100000)"
fill="#000000" stroke="none">
<path d="M957 1828 c-152 -33 -244 -201 -191 -349 46 -130 193 -206 323 -169
l35 10 -35 -38 c-18 -20 -49 -53 -67 -73 l-33 -36 -112 44 c-154 60 -314 113
-344 113 -22 0 -24 3 -19 23 4 12 9 44 13 71 l6 48 -29 -5 c-16 -4 -63 -9
-104 -12 -41 -4 -86 -8 -100 -10 -14 -2 -59 -7 -100 -10 -41 -4 -78 -8 -81
-11 -14 -8 22 -91 52 -122 17 -17 48 -39 69 -48 24 -11 36 -22 33 -30 -11 -31
84 -38 257 -20 64 7 68 6 135 -32 39 -21 91 -51 117 -65 26 -15 84 -47 129
-73 130 -73 141 -72 262 41 35 33 75 70 89 83 l26 23 31 -67 c17 -37 52 -96
78 -132 26 -36 52 -82 59 -103 25 -71 1 -171 -75 -314 l-47 -90 -309 -1 c-330
0 -403 -8 -462 -47 -57 -39 -68 -91 -29 -142 72 -94 401 -168 797 -180 124 -3
271 15 320 40 114 60 205 247 238 495 9 67 7 331 -4 410 -38 282 -209 493
-456 564 -45 13 -83 20 -141 25 -4 1 -14 16 -22 35 -47 113 -184 182 -309 154z
m-554 -525 c-7 -2 -19 -2 -25 0 -7 3 -2 5 12 5 14 0 19 -2 13 -5z m47 -23 c13
-25 -10 -38 -77 -45 -40 -4 -42 -3 -13 3 64 15 99 43 68 55 -10 4 -10 6 -1 6
7 1 17 -8 23 -19z m-133 -46 c-3 -3 -12 -4 -19 -1 -8 3 -5 6 6 6 11 1 17 -2
13 -5z"/>
</g>
</svg>
